<?xml version="1.0" encoding="UTF-8" standalone="no"?><svg xmlns="http://www.w3.org/2000/svg" xmlns:xlink="http://www.w3.org/1999/xlink" fill="#ebeff8" height="115" preserveAspectRatio="xMidYMid meet" version="1" viewBox="-0.1 -1.0 126.1 115.0" width="126.1" zoomAndPan="magnify"><g id="change1_1"><path d="M41.348,60.044c7.146,4.229,13.317,7.881,15.747,13.12c0.164,0.353,0.518,0.579,0.907,0.579s0.743-0.226,0.907-0.579 c2.43-5.239,8.602-8.891,15.747-13.12c12.183-7.21,27.346-16.184,27.345-37.636c-0.278-11.143-8.85-20.693-19.938-22.213 c-8.379-1.151-18.806,2.601-24.062,16.159C52.746,2.797,42.317-0.951,33.94,0.195c-11.088,1.52-19.66,11.07-19.938,22.238 C14.002,43.86,29.165,52.834,41.348,60.044z" fill="inherit"/><path d="M125.002,81.803h-19.954c-0.181-1.548-0.93-4.499-3.917-6.797c-5.648-4.347-16.135-4.11-31.07,0.68l-0.555,0.12 c-6.937,1.501-10.759,2.329-17.253,0.495l-0.689-0.196C47.707,75,40.526,72.942,36.318,75.45c-1.433,0.854-2.38,2.151-2.818,3.858 c-13.252-9.758-20.089-8.936-22.744-7.852c-3.659-1.178-6.133-1.916-8.343-0.84c-1.262,0.618-2.171,1.886-2.371,3.309 c-0.182,1.292,0.241,2.51,1.161,3.341c1.583,1.429,3.416,3.161,5.539,5.167c5.053,4.774,11.342,10.716,17.719,15.787 c4.37,3.565,6.676,4.709,12.248,4.742c0.49,0.258,0.957,0.476,1.406,0.64c8.581,3.181,31.187,8.554,40.958,9.74 c2.879,0.464,5.191,0.653,7.979,0.653h37.95c0.552,0,1-0.448,1-1v-30.19C126.002,82.251,125.554,81.803,125.002,81.803z M8.114,80.978c-2.132-2.014-3.973-3.754-5.572-5.197c-0.573-0.518-0.572-1.211-0.521-1.578c0.109-0.775,0.596-1.461,1.268-1.791 c1.291-0.629,3.063-0.236,5.556,0.537c-0.319,0.454-0.562,0.966-0.684,1.533c-0.281,1.313,0.047,2.654,0.899,3.679 c2.955,3.563,7.794,7.734,13.398,12.564c3.736,3.219,7.593,6.549,11.325,10.067c-3.041-0.392-4.885-1.532-8.071-4.131 C19.394,91.635,13.14,85.726,8.114,80.978z M124.002,111.993h-36.95c-2.674,0-4.894-0.182-7.699-0.633 c-9.706-1.179-32.062-6.491-40.547-9.637c-0.431-0.157-0.879-0.365-1.354-0.626c-0.74-0.427-1.41-0.924-1.992-1.48 c-3.86-3.655-7.843-7.087-11.694-10.407c-5.536-4.771-10.316-8.892-13.165-12.327c-0.458-0.552-0.634-1.274-0.482-1.983 c0.141-0.657,0.554-1.196,1.131-1.479c0.517-0.251,1.516-0.597,3.102-0.597c3.389,0,9.454,1.577,19.19,9.015 c0.672,1.624,2.536,2.947,5.595,3.951c4.304,1.131,11.278,3.728,14.928,5.558c2.743,1.367,5.963,2.071,9.845,2.155 c0.537,0.011,1.082,0.017,1.63,0.022c2.326,0.024,4.732,0.049,6.557,0.526c1.334,0.435,2.069,0.675,3.053,2.34 c0.28,0.475,0.894,0.632,1.37,0.352c0.476-0.281,0.633-0.894,0.352-1.37c-1.368-2.315-2.66-2.736-4.155-3.224 c-0.02-0.006-0.125-0.04-0.145-0.045c-2.035-0.528-4.565-0.555-7.011-0.58c-0.541-0.006-1.08-0.011-1.608-0.022 c-3.581-0.077-6.523-0.713-8.994-1.944c-3.747-1.878-10.902-4.543-15.256-5.686c-3.33-1.094-4.165-2.308-4.364-2.938 c-0.002-0.006-0.004-0.012-0.006-0.018c-0.123-0.407-0.022-0.684-0.024-0.684c0,0,0,0,0,0c0.035-0.072,0.062-0.148,0.079-0.226 c0.286-1.298,0.924-2.227,1.953-2.84c3.466-2.067,10.358-0.09,13.67,0.859l0.698,0.199c6.974,1.969,11.206,1.052,18.218-0.465 l0.648-0.145c17.85-5.719,25.785-3.728,29.298-1.052c3.338,2.542,3.234,6.046,3.228,6.189c-0.014,0.273,0.085,0.541,0.273,0.74 c0.189,0.199,0.451,0.311,0.725,0.311h19.9V111.993z" fill="inherit"/></g></svg>